<?xml version="1.0" encoding="UTF-8" standalone="no"?>
<svg
   xmlns:dc="http://purl.org/dc/elements/1.1/"
   xmlns:cc="http://creativecommons.org/ns#"
   xmlns:rdf="http://www.w3.org/1999/02/22-rdf-syntax-ns#"
   xmlns:svg="http://www.w3.org/2000/svg"
   xmlns="http://www.w3.org/2000/svg"
   id="svg567"
   viewBox="0 0 6.2406 7.2427818"
   height="12.727714mm"
   width="10.966583mm"
   version="1.2">
  <metadata
     id="metadata573">
    <rdf:RDF>
      <cc:Work
         rdf:about="">
        <dc:format>image/svg+xml</dc:format>
        <dc:type
           rdf:resource="http://purl.org/dc/dcmitype/StillImage" />
        <dc:title></dc:title>
      </cc:Work>
    </rdf:RDF>
  </metadata>
  <defs
     id="defs571" />
  <style
     id="style535"
     text="style/css"><![CDATA[
tspan { white-space: pre; }
]]></style>
  <!-- Page: 1/1 -->
  <text
     y="-1.0150183"
     x="-2"
     id="text539"
     fill="currentColor"
     text-anchor="start"
     font-size="2.2001px"
     font-family="serif"><tspan
       id="tspan537" /></text>
  <path
     style="stroke-width:0.0036"
     id="path541"
     fill="currentColor"
     d="m 3.174,6.2563816 c 0.2052,0 0.3996,0.1044 0.3996,0.3312 0,0.2556 -0.1944,0.432 -0.3636,0.5328 -0.126,0.0756 -0.2664,0.1224 -0.4104,0.1224 -0.2052,0 -0.3996,-0.1044 -0.3996,-0.3312 0,-0.2556 0.1944,-0.432 0.3636,-0.5328 0.126,-0.0756 0.2664,-0.1224 0.4104,-0.1224 z" />
  <rect
     id="rect543"
     fill="currentColor"
     ry="0.039999999"
     height="4.6501999"
     width="0.13"
     y="1.9395816"
     x="3.4305999" />
  <path
     style="stroke-width:0.0036"
     id="path545"
     fill="currentColor"
     d="m 5.574,6.2563816 c 0.2052,0 0.3996,0.1044 0.3996,0.3312 0,0.2556 -0.1944,0.432 -0.3636,0.5328 -0.126,0.0756 -0.2664,0.1224 -0.4104,0.1224 -0.2052,0 -0.3996,-0.1044 -0.3996,-0.3312 0,-0.2556 0.1944,-0.432 0.3636,-0.5328 0.126,-0.0756 0.2664,-0.1224 0.4104,-0.1224 z" />
  <rect
     id="rect547"
     fill="currentColor"
     ry="0.039999999"
     height="4.6501999"
     width="0.13"
     y="1.9395816"
     x="5.8305998" />
  <polygon
     id="polygon549"
     points="0.04,0.2 0.04,-0.2 4.89,-0.2 4.89,0.2 "
     stroke="currentColor"
     fill="currentColor"
     stroke-width="0.08"
     stroke-linecap="round"
     stroke-linejoin="round"
     transform="translate(1.0306,1.9395816)" />
  <text
     y="1.1799816"
     x="3.0518"
     id="text553"
     fill="currentColor"
     text-anchor="start"
     font-size="1.7461px"
     font-style="italic"
     font-family="serif"><tspan
       id="tspan551">3</tspan></text>
  <line
     id="line555"
     y2="1.2995816"
     x2="6.1606002"
     y1="0.5995816"
     x1="6.1606002"
     stroke="currentColor"
     stroke-width="0.16"
     stroke-linecap="round"
     stroke-linejoin="round" />
  <line
     id="line557"
     y2="1.2995816"
     x2="0.83060002"
     y1="0.5995816"
     x1="0.83060002"
     stroke="currentColor"
     stroke-width="0.16"
     stroke-linecap="round"
     stroke-linejoin="round" />
  <line
     id="line559"
     y2="0.5995816"
     x2="4.5394998"
     y1="0.5995816"
     x1="6.1606002"
     stroke="currentColor"
     stroke-width="0.16"
     stroke-linecap="round"
     stroke-linejoin="round" />
  <line
     id="line561"
     y2="0.5995816"
     x2="2.6517"
     y1="0.5995816"
     x1="0.83060002"
     stroke="currentColor"
     stroke-width="0.16"
     stroke-linecap="round"
     stroke-linejoin="round" />
  <path
     style="stroke-width:0.0036"
     id="path563"
     fill="currentColor"
     d="m 0.774,6.2563816 c 0.2052,0 0.3996,0.1044 0.3996,0.3312 0,0.2556 -0.1944,0.432 -0.3636,0.5328 -0.126,0.0756 -0.2664,0.1224 -0.4104,0.1224 -0.2052,0 -0.3996,-0.1044 -0.3996,-0.3312 0,-0.2556 0.1944,-0.432 0.3636,-0.5328 0.126,-0.0756 0.2664,-0.1224 0.4104,-0.1224 z" />
  <rect
     id="rect565"
     fill="currentColor"
     ry="0.039999999"
     height="4.6501999"
     width="0.13"
     y="1.9395816"
     x="1.0306" />
</svg>
